<?xml version="1.0" standalone="no"?>
<!DOCTYPE svg PUBLIC "-//W3C//DTD SVG 20010904//EN"
 "http://www.w3.org/TR/2001/REC-SVG-20010904/DTD/svg10.dtd">
<svg version="1.0" xmlns="http://www.w3.org/2000/svg"
 width="441.000000pt" height="435.000000pt" viewBox="0 0 441.000000 435.000000"
 preserveAspectRatio="xMidYMid meet">

<g transform="translate(0.000000,435.000000) scale(0.100000,-0.100000)"
fill="#000000" stroke="none">
<path d="M0 2175 l0 -2175 2205 0 2205 0 0 2175 0 2175 -2205 0 -2205 0 0
-2175z m2375 2115 c328 -26 731 -164 1011 -346 200 -131 412 -323 543 -494
296 -385 451 -890 426 -1390 -10 -191 -57 -479 -74 -452 -3 6 -6 -6 -7 -26 0
-66 -140 -395 -231 -542 -136 -220 -331 -432 -538 -586 -151 -112 -240 -166
-219 -132 4 7 3 8 -5 4 -6 -4 -9 -11 -6 -16 12 -20 -294 -158 -460 -208 -123
-37 -284 -69 -205 -41 23 8 23 8 -5 4 -16 -2 -70 -10 -120 -17 -73 -10 -83
-14 -55 -18 19 -3 -93 -6 -250 -6 -157 0 -271 3 -255 7 l30 7 -30 1 c-16 1
-64 8 -105 16 -136 25 -150 26 -100 11 56 -18 38 -20 -30 -4 -39 9 -48 14 -34
19 17 7 17 8 2 8 -10 1 -59 14 -110 31 -51 16 -94 28 -96 25 -2 -2 28 -14 67
-26 39 -13 69 -25 66 -27 -10 -11 -237 77 -230 89 4 5 0 6 -8 3 -21 -8 -240
104 -231 118 4 7 3 8 -4 4 -14 -9 -75 22 -67 34 3 5 0 12 -6 16 -8 5 -9 3 -4
-6 13 -20 -16 -7 -85 40 -33 23 -58 45 -55 50 3 5 0 12 -6 16 -8 4 -9 3 -5 -4
11 -18 -10 -14 -25 5 -10 11 -10 14 -1 9 18 -11 15 -1 -5 15 -11 10 -14 10 -9
2 15 -27 -11 -11 -76 45 -38 31 -67 60 -65 64 3 11 -135 147 -147 145 -5 -1
-10 3 -11 10 0 7 -9 19 -20 28 -11 9 -13 13 -5 9 8 -4 -1 11 -21 32 -132 142
-272 389 -361 638 -146 409 -164 831 -54 1251 80 302 184 511 379 762 201 258
407 430 687 572 389 199 805 284 1225 251z m-748 -4206 c-3 -3 -12 -4 -19 -1
-8 3 -5 6 6 6 11 1 17 -2 13 -5z m176 -41 c-7 -2 -19 -2 -25 0 -7 3 -2 5 12 5
14 0 19 -2 13 -5z m774 1 c-3 -3 -12 -4 -19 -1 -8 3 -5 6 6 6 11 1 17 -2 13
-5z m-709 -11 c-10 -2 -26 -2 -35 0 -10 3 -2 5 17 5 19 0 27 -2 18 -5z m655 0
c-7 -2 -21 -2 -30 0 -10 3 -4 5 12 5 17 0 24 -2 18 -5z m-506 -19 c-3 -3 -12
-4 -19 -1 -8 3 -5 6 6 6 11 1 17 -2 13 -5z m351 -1 c-10 -2 -28 -2 -40 0 -13
2 -5 4 17 4 22 1 32 -1 23 -4z"/>
<path d="M2508 4233 c7 -3 16 -2 19 1 4 3 -2 6 -13 5 -11 0 -14 -3 -6 -6z"/>
<path d="M1848 4223 c7 -3 16 -2 19 1 4 3 -2 6 -13 5 -11 0 -14 -3 -6 -6z"/>
<path d="M2558 4223 c7 -3 16 -2 19 1 4 3 -2 6 -13 5 -11 0 -14 -3 -6 -6z"/>
<path d="M2120 4214 c-358 -26 -624 -96 -909 -237 -248 -123 -450 -278 -623
-479 -260 -302 -404 -601 -475 -988 -25 -133 -25 -529 0 -680 41 -250 150
-543 278 -746 41 -64 47 -80 27 -68 -15 10 20 -40 62 -86 l32 -35 -22 32 c-11
18 -25 35 -30 38 -10 6 -33 45 -27 45 2 0 28 -30 57 -67 30 -38 46 -62 37 -54
-71 57 72 -112 179 -212 259 -242 518 -402 804 -498 215 -72 375 -100 600
-106 204 -6 291 1 475 38 379 75 750 258 1024 505 129 116 302 331 397 490
363 616 393 1394 78 2012 -42 81 -82 154 -90 162 -15 14 96 -213 115 -236 5
-6 9 -18 8 -25 -1 -13 17 -57 48 -119 18 -34 48 -140 42 -146 -2 -3 -8 8 -12
23 -23 93 -145 352 -212 450 -139 204 -345 425 -511 552 -212 161 -510 304
-770 370 -170 44 -447 75 -582 65z m93 -341 c-7 -2 -21 -2 -30 0 -10 3 -4 5
12 5 17 0 24 -2 18 -5z m-1382 -206 c-10 -9 -11 -8 -5 6 3 10 9 15 12 12 3 -3
0 -11 -7 -18z m111 -69 c-7 -7 -12 -8 -12 -2 0 14 12 26 19 19 2 -3 -1 -11 -7
-17z m-39 -42 c4 -10 0 -14 -13 -13 -14 1 -16 4 -8 14 13 16 15 16 21 -1z m37
-36 c0 -5 -5 -10 -11 -10 -5 0 -7 5 -4 10 3 6 8 10 11 10 2 0 4 -4 4 -10z
m-100 -15 c0 -8 -5 -15 -10 -15 -6 0 -40 -31 -78 -68 -37 -37 -54 -52 -37 -32
36 43 118 130 122 130 2 0 3 -7 3 -15z m44 -37 c-3 -4 -9 -8 -15 -8 -5 0 -9 4
-9 8 0 5 7 9 15 9 8 0 12 -4 9 -9z m2856 -2 c0 -2 -8 -10 -17 -17 -16 -13 -17
-12 -4 4 13 16 21 21 21 13z m-2935 -66 c-3 -5 -12 -10 -18 -10 -7 0 -6 4 3
10 19 12 23 12 15 0z m1352 -47 c-3 -10 -5 -4 -5 12 0 17 2 24 5 18 2 -7 2
-21 0 -30z m70 -5 c-3 -8 -6 -5 -6 6 -1 11 2 17 5 13 3 -3 4 -12 1 -19z
m-1477 2 c8 -5 11 -10 5 -10 -5 0 -17 5 -25 10 -8 5 -10 10 -5 10 6 0 17 -5
25 -10z m1446 -19 c-4 -6 -16 -16 -27 -21 -15 -9 -19 -7 -19 5 0 9 5 13 11 10
6 -4 13 3 16 15 4 14 9 18 15 12 6 -6 7 -15 4 -21z m-926 14 c0 -2 -10 -9 -22
-15 -22 -11 -22 -10 -4 4 21 17 26 19 26 11z m-534 -52 c-2 -2 -20 4 -41 12
-20 9 -38 15 -39 13 -1 -2 -16 -22 -34 -45 -17 -23 -32 -47 -32 -53 0 -6 14
-16 31 -22 22 -8 27 -13 18 -19 -8 -5 -20 -2 -29 5 -8 8 -23 16 -32 17 -13 3
-7 17 33 71 l50 66 39 -21 c21 -12 37 -23 36 -24z m1875 -8 c39 -69 55 -80 28
-20 -31 71 -15 65 27 -10 33 -61 84 -127 84 -112 0 7 90 -46 124 -73 70 -55
126 -115 126 -136 0 -24 34 -67 44 -56 11 10 6 -13 -9 -42 -13 -25 -13 -27 1
-22 10 4 15 0 13 -12 -3 -33 1 -40 29 -47 15 -3 48 -20 75 -37 38 -24 45 -33
36 -44 -6 -8 -14 -14 -16 -14 -3 0 0 6 6 14 9 11 2 19 -41 40 -28 14 -64 26
-79 26 -27 0 -28 -1 -17 -31 6 -16 13 -28 15 -25 3 3 17 -9 30 -25 14 -16 38
-36 54 -44 27 -15 89 -74 89 -86 0 -4 -17 9 -37 27 -37 34 -66 47 -43 19 10
-12 9 -26 -4 -70 -21 -64 -18 -87 9 -95 17 -4 20 -14 20 -57 1 -44 -3 -54 -22
-64 -21 -11 -23 -17 -17 -63 8 -62 19 -86 42 -87 9 0 1 -6 -18 -13 -19 -8 -38
-11 -42 -9 -5 2 -8 -1 -8 -6 0 -6 11 -11 24 -11 13 0 26 -7 29 -15 5 -11 1
-12 -17 -5 -13 5 -29 4 -37 -1 -8 -5 -9 -9 -4 -9 6 0 3 -5 -5 -10 -13 -8 -13
-10 1 -10 9 0 22 -7 29 -15 10 -12 9 -15 -8 -15 -11 0 -25 7 -32 15 -6 8 -21
13 -33 12 -16 -1 -28 -20 -52 -78 -93 -229 -225 -374 -430 -474 -120 -57 -195
-75 -345 -81 -69 -2 -156 -6 -194 -8 -40 -2 -63 0 -55 5 10 6 7 9 -10 9 -49 0
-187 50 -261 94 -147 87 -240 184 -316 330 l-49 94 -48 -4 c-31 -3 -46 -1 -42
6 3 5 18 10 33 11 19 1 14 4 -17 10 -45 9 -66 19 -40 19 20 1 71 48 64 60 -9
15 -31 12 -45 -5 -7 -8 -21 -15 -31 -15 -15 0 -16 4 -8 32 16 57 12 71 -17 65
-25 -4 -26 -3 -21 33 3 21 0 43 -6 49 -7 7 -6 15 3 26 11 13 11 18 1 24 -9 6
-6 10 11 16 20 7 17 9 -22 15 -43 7 -43 7 -10 9 27 1 31 4 20 11 -14 9 -7 14
13 11 5 -1 6 3 2 9 -10 16 -43 12 -54 -7 -9 -16 -10 -15 -11 5 0 13 4 20 10
17 13 -8 13 36 0 70 -6 15 -6 24 -1 20 5 -3 12 -19 16 -36 6 -27 10 -30 38
-27 28 3 32 6 28 28 -1 14 -8 29 -15 33 -6 5 -1 6 11 2 21 -6 22 -4 13 22 -4
15 -11 45 -15 66 -7 44 -14 45 -53 12 -24 -20 -31 -22 -36 -10 -3 8 -1 14 3
12 5 -1 27 12 49 28 37 27 41 34 40 72 0 38 -3 41 -19 33 -47 -26 -37 0 11 28
35 20 41 21 46 7 6 -15 35 -21 47 -8 4 3 1 13 -6 21 -10 13 -8 14 18 9 26 -6
27 -6 10 5 -19 11 -19 11 0 19 18 7 17 8 -5 8 -44 1 -109 -37 -178 -101 l-66
-63 43 52 c47 56 95 93 153 118 21 8 38 19 38 24 0 4 -18 21 -40 36 -22 15
-40 30 -40 32 0 5 13 -2 65 -37 48 -32 75 -35 69 -7 -2 11 -10 27 -17 36 -15
17 -12 45 4 35 5 -3 9 0 9 6 0 6 5 8 10 5 12 -7 12 2 0 30 -6 16 3 30 47 73
30 28 61 52 68 52 8 0 18 6 22 13 4 7 25 21 46 31 20 9 47 30 59 47 12 16 29
29 37 29 14 0 14 1 1 10 -13 9 -13 10 1 10 8 0 34 32 57 73 23 39 42 69 42 64
0 -9 -58 -123 -95 -187 l-26 -45 25 30 c15 17 45 60 67 98 23 37 43 67 45 67
3 0 -8 -24 -23 -52 -40 -77 -46 -93 -30 -79 8 6 16 8 19 5 3 -3 25 24 48 60
24 36 44 66 46 66 2 0 -1 -12 -6 -26 -13 -33 -13 -37 3 -27 6 4 19 9 27 10 8
1 51 9 95 18 44 8 92 15 108 15 21 0 27 5 27 23 0 12 4 18 8 12 4 -5 13 -11
20 -12 6 -2 18 -4 25 -5 6 -2 19 -11 28 -20 17 -19 34 -25 24 -9 -3 5 5 11 17
13 14 2 25 13 29 28 6 23 7 23 8 -7 1 -26 4 -31 19 -26 9 4 21 11 25 17 5 6 6
-1 3 -15 -7 -31 0 -34 64 -38 55 -3 84 -7 133 -19 23 -6 39 -6 43 0 3 5 11 4
20 -3 19 -15 19 1 0 46 -20 47 -12 44 18 -7 24 -40 83 -103 131 -138 18 -14
18 -13 -2 20 -44 75 -114 210 -109 210 3 0 20 -25 37 -55z m-1421 10 c0 -2
-10 -9 -22 -15 -22 -11 -22 -10 -4 4 21 17 26 19 26 11z m-50 -29 c0 -2 -8
-10 -17 -17 -16 -13 -17 -12 -4 4 13 16 21 21 21 13z m-450 -21 c-7 -8 -18
-15 -24 -15 -6 0 -2 7 8 15 25 19 32 19 16 0z m315 -43 c-11 -10 -61 -56 -111
-102 -85 -80 -84 -78 13 18 58 56 107 102 111 102 3 0 -2 -8 -13 -18z m65 15
c0 -2 -15 -16 -32 -33 l-33 -29 29 33 c28 30 36 37 36 29z m2410 -115 c30 -29
46 -49 35 -44 -11 6 -54 45 -95 88 -80 82 -33 49 60 -44z m-2270 94 c0 -2 -8
-10 -17 -17 -16 -13 -17 -12 -4 4 13 16 21 21 21 13z m-670 -36 c-9 -17 -8
-20 14 -20 31 0 56 -10 56 -22 0 -9 -18 -6 -68 13 -19 7 -21 12 -12 29 6 11
13 20 16 20 2 0 0 -9 -6 -20z m3226 -5 c-11 -8 -25 -15 -30 -15 -6 1 0 7 14
15 32 19 40 18 16 0z m-446 -9 c0 -3 -4 -8 -10 -11 -5 -3 -10 -1 -10 4 0 6 5
11 10 11 6 0 10 -2 10 -4z m-2340 -10 c0 -2 -8 -10 -17 -17 -16 -13 -17 -12
-4 4 13 16 21 21 21 13z m-406 -66 c9 0 16 -4 16 -10 0 -15 -20 -12 -68 10
-25 11 -41 24 -37 30 4 7 18 3 39 -10 19 -11 41 -20 50 -20z m376 26 c0 -3
-15 -14 -32 -26 l-33 -22 28 26 c27 25 37 31 37 22z m2860 -1 c0 -2 -13 -11
-30 -20 -38 -19 -40 -11 -2 9 31 17 32 18 32 11z m30 -60 c-7 -8 -17 -12 -23
-8 -6 4 -3 9 9 14 27 11 28 11 14 -6z m-3370 -21 c0 -2 -7 -4 -15 -4 -8 0 -15
4 -15 10 0 5 7 7 15 4 8 -4 15 -8 15 -10z m320 -8 c0 -2 -8 -10 -17 -17 -16
-13 -17 -12 -4 4 13 16 21 21 21 13z m3100 -26 c-8 -5 -22 -9 -30 -9 -10 0 -8
3 5 9 27 12 43 12 25 0z m-3390 -92 c0 -18 -3 -16 -29 11 -16 17 -38 31 -50
31 -20 0 -27 10 -15 22 3 3 25 -5 50 -19 29 -16 44 -31 44 -45z m3410 28 c0
-3 -4 -8 -10 -11 -5 -3 -10 -1 -10 4 0 6 5 11 10 11 6 0 10 -2 10 -4z m-3525
-25 c-3 -6 11 -13 32 -16 21 -4 47 -11 58 -16 16 -7 13 -8 -14 -4 -18 3 -41 5
-50 5 -24 0 -44 16 -37 29 4 6 9 11 12 11 3 0 3 -4 -1 -9z m36 -76 l34 -16
-40 6 c-22 4 -47 11 -55 16 -27 16 25 10 61 -6z m82 -5 c3 -11 1 -18 -4 -14
-5 3 -9 12 -9 20 0 20 7 17 13 -6z m3543 -12 c5 -8 2 -9 -9 -5 -10 3 -17 2
-17 -3 0 -6 -12 -10 -27 -9 l-28 1 30 13 c37 18 42 18 51 3z m-3589 -40 c-3
-8 -6 -5 -6 6 -1 11 2 17 5 13 3 -3 4 -12 1 -19z m-69 -9 c51 -13 72 -25 72
-43 0 -7 -3 -6 -9 2 -4 7 -36 18 -69 25 -34 6 -62 15 -62 19 0 11 13 10 68 -3z
m3682 -29 c0 -5 -10 -10 -22 -9 -22 0 -22 1 -3 9 11 5 21 9 23 9 1 1 2 -3 2
-9z m157 -42 c-3 -8 -6 -5 -6 6 -1 11 2 17 5 13 3 -3 4 -12 1 -19z m-681 -13
c-11 -8 -25 -15 -30 -15 -6 1 0 7 14 15 32 19 40 18 16 0z m-3121 -11 c-47 -7
-113 -8 -108 -1 2 4 32 6 66 6 34 -1 53 -3 42 -5z m2736 -27 c-10 -9 -11 -8
-5 6 3 10 9 15 12 12 3 -3 0 -11 -7 -18z m-1961 -13 c0 -8 -19 -13 -24 -6 -3
5 1 9 9 9 8 0 15 -2 15 -3z m-874 -53 c-5 -8 -56 -3 -56 5 0 2 14 4 31 4 16 0
28 -4 25 -9z m734 5 c0 -2 -8 -10 -17 -17 -16 -13 -17 -12 -4 4 13 16 21 21
21 13z m3047 -12 c-3 -3 -12 -4 -19 -1 -8 3 -5 6 6 6 11 1 17 -2 13 -5z m160
-81 c-3 -10 -5 -2 -5 17 0 19 2 27 5 18 2 -10 2 -26 0 -35z m-159 10 c-10 -2
-26 -2 -35 0 -10 3 -2 5 17 5 19 0 27 -2 18 -5z m-3805 -10 c-7 -2 -21 -2 -30
0 -10 3 -4 5 12 5 17 0 24 -2 18 -5z m3974 -85 c-2 -13 -4 -3 -4 22 0 25 2 35
4 23 2 -13 2 -33 0 -45z m-157 2 c-20 -13 -43 -13 -35 0 3 6 16 10 28 10 18 0
19 -2 7 -10z m-3820 -10 c-20 -13 -50 -13 -50 0 0 6 15 10 33 10 24 0 28 -3
17 -10z m2907 -42 c-3 -7 -5 -2 -5 12 0 14 2 19 5 13 2 -7 2 -19 0 -25z m933
-18 c0 -12 -37 -12 -65 0 -15 7 -10 9 23 9 23 1 42 -3 42 -9z m147 -57 c-2
-16 -4 -5 -4 22 0 28 2 40 4 28 2 -13 2 -35 0 -50z m-4004 -20 c-7 -2 -21 -2
-30 0 -10 3 -4 5 12 5 17 0 24 -2 18 -5z m3867 -3 c0 -5 -13 -10 -30 -10 -16
0 -30 5 -30 10 0 6 14 10 30 10 17 0 30 -4 30 -10z m138 -72 l-1 -43 -4 37
c-3 24 -10 38 -21 41 -12 3 -11 5 6 6 20 1 22 -3 20 -41z m-1075 5 c7 -39 1
-40 -11 -4 -6 17 -7 31 -3 31 5 0 11 -12 14 -27z m-2068 -29 c-24 -24 -29 -10
-8 22 14 22 19 25 21 11 2 -9 -4 -24 -13 -33z m3005 31 c0 -17 -4 -18 -49 -9
-40 8 -30 24 15 24 24 0 34 -5 34 -15z m-3853 -1 c-3 -3 -12 -4 -19 -1 -8 3
-5 6 6 6 11 1 17 -2 13 -5z m851 -68 c-7 -8 -16 -12 -21 -9 -11 7 2 23 19 23
12 0 12 -2 2 -14z m-868 -20 c0 -2 -7 -7 -16 -10 -8 -3 -12 -2 -9 4 6 10 25
14 25 6z m3843 -13 c-13 -2 -33 -2 -45 0 -13 2 -3 4 22 4 25 0 35 -2 23 -4z
m-3686 -39 c-9 -9 -28 6 -21 18 4 6 10 6 17 -1 6 -6 8 -13 4 -17z m-78 2 c-2
-2 -15 -9 -29 -15 -24 -11 -24 -11 -6 3 16 13 49 24 35 12z m2941 -10 c0 -2
-8 -10 -17 -17 -16 -13 -17 -12 -4 4 13 16 21 21 21 13z m-3000 -20 c0 -2 -7
-7 -16 -10 -8 -3 -12 -2 -9 4 6 10 25 14 25 6z m3150 -83 c0 -8 -9 0 -50 45
l-45 47 48 -45 c26 -24 47 -45 47 -47z m668 70 c-10 -2 -26 -2 -35 0 -10 3 -2
5 17 5 19 0 27 -2 18 -5z m-3118 -6 c0 -1 -28 -29 -62 -62 l-63 -60 60 63 c55
58 65 67 65 59z m-689 -32 c-18 -8 -38 -15 -45 -14 -15 1 46 28 64 28 8 0 0
-6 -19 -14z m599 12 c0 -2 -12 -14 -27 -28 l-28 -24 24 28 c23 25 31 32 31 24z
m-535 -97 c-3 -5 -12 -10 -18 -10 -7 0 -6 4 3 10 19 12 23 12 15 0z m510 -170
c13 -20 15 -41 4 -34 -5 3 -7 9 -4 14 3 5 1 11 -5 15 -15 9 -12 -22 5 -58 16
-32 16 -32 -3 -10 -21 24 -37 170 -24 226 5 24 8 12 12 -53 3 -47 9 -92 15
-100z m2593 92 c5 -69 -18 -160 -47 -186 -19 -17 -19 -17 -12 16 4 18 18 52
29 75 24 46 28 105 11 150 -8 22 -8 26 2 16 7 -7 15 -39 17 -71z m-3167 52
c-19 -8 -36 -12 -39 -9 -6 6 37 24 58 24 8 0 0 -6 -19 -15z m3733 -5 c-4 -7 5
-9 28 -6 25 3 35 0 35 -9 0 -13 -20 -12 -64 2 -16 4 -17 24 -2 24 5 0 7 -5 3
-11z m-3655 -25 c-7 -8 -26 -22 -43 -31 -36 -18 -30 -10 16 23 39 28 45 29 27
8z m-21 -99 c-3 -3 -9 2 -12 12 -6 14 -5 15 5 6 7 -7 10 -15 7 -18z m-44 -20
c-4 -8 -8 -15 -10 -15 -2 0 -4 7 -4 15 0 8 4 15 10 15 5 0 7 -7 4 -15z m3719
-72 c-7 -2 -21 -2 -30 0 -10 3 -4 5 12 5 17 0 24 -2 18 -5z m-3673 -7 c0 -2
-7 -6 -15 -10 -8 -3 -15 -1 -15 4 0 6 7 10 15 10 8 0 15 -2 15 -4z m20 -60 c0
-3 -4 -8 -10 -11 -5 -3 -10 -1 -10 4 0 6 5 11 10 11 6 0 10 -2 10 -4z m3627
-12 c-3 -3 -12 -4 -19 -1 -8 3 -5 6 6 6 11 1 17 -2 13 -5z m-3505 -66 c-7 -7
-12 -8 -12 -2 0 14 12 26 19 19 2 -3 -1 -11 -7 -17z m-52 9 c0 -2 -10 -12 -22
-23 l-23 -19 19 23 c18 21 26 27 26 19z m3221 -65 c-5 -10 -21 -27 -35 -37
-14 -10 -23 -22 -21 -25 3 -4 -8 -18 -23 -31 l-27 -24 20 24 c11 13 18 25 17
28 -3 4 67 80 76 82 1 1 -2 -7 -7 -17z m-2930 -9 c13 -16 12 -17 -3 -4 -10 7
-18 15 -18 17 0 8 8 3 21 -13z m-53 -39 c-4 -3 -12 5 -18 18 -12 22 -12 22 6
6 10 -10 15 -20 12 -24z m1685 29 c-7 -2 -21 -2 -30 0 -10 3 -4 5 12 5 17 0
24 -2 18 -5z m-1876 -25 c-3 -8 -6 -5 -6 6 -1 11 2 17 5 13 3 -3 4 -12 1 -19z
m1667 3 c-17 -4 -51 -5 -75 -1 -38 7 -34 8 31 8 53 0 66 -2 44 -7z m-1325
-128 c3 -2 -5 -2 -17 0 -24 4 -37 14 -37 30 0 5 -6 12 -14 15 -9 3 -11 0 -5
-9 6 -12 5 -12 -9 0 -10 8 -15 16 -12 19 9 9 -17 32 -29 25 -6 -3 -8 -3 -4 2
4 4 2 15 -5 24 -9 11 60 -44 132 -106z m-15 91 c3 -8 2 -12 -4 -9 -6 3 -10 10
-10 16 0 14 7 11 14 -7z m56 -44 c0 -5 -2 -10 -4 -10 -3 0 -8 5 -11 10 -3 6
-1 10 4 10 6 0 11 -4 11 -10z m2675 0 c3 -5 0 -8 -7 -5 -7 3 -18 -5 -23 -17
-6 -13 -16 -24 -22 -24 -7 -1 -18 -2 -24 -3 -5 0 -7 -6 -3 -13 5 -7 3 -8 -5
-3 -17 10 24 49 42 39 6 -4 9 -4 5 1 -8 9 9 35 23 35 4 0 11 -4 14 -10z
m-2625 -40 c0 -5 -2 -10 -4 -10 -3 0 -8 5 -11 10 -3 6 -1 10 4 10 6 0 11 -4
11 -10z m-55 -41 c-10 -15 -25 -10 -19 6 4 8 10 12 15 9 5 -3 7 -10 4 -15z
m2579 2 c3 -5 -2 -15 -11 -22 -12 -10 -14 -10 -9 -1 5 8 1 12 -11 12 -15 0
-16 2 -3 10 19 12 27 12 34 1z m-142 -23 c-7 -7 -12 -8 -12 -2 0 14 12 26 19
19 2 -3 -1 -11 -7 -17z m-2267 -18 c3 -5 2 -10 -4 -10 -5 0 -13 5 -16 10 -3 6
-2 10 4 10 5 0 13 -4 16 -10z m2322 -8 c-10 -10 -15 -21 -12 -24 3 -3 -7 -13
-22 -23 -24 -16 -26 -16 -14 -2 16 20 9 22 -22 6 -36 -19 -5 10 40 37 48 28
50 28 30 6z m-2404 -28 c-7 -20 -10 -18 -15 11 -4 20 -2 23 8 14 7 -6 10 -17
7 -25z m61 -17 c25 -20 27 -25 13 -30 -11 -4 -17 -1 -17 8 0 8 -10 21 -22 29
-12 9 -18 16 -13 16 6 0 23 -11 39 -23z m96 13 c8 -5 11 -10 5 -10 -5 0 -17 5
-25 10 -8 5 -10 10 -5 10 6 0 17 -5 25 -10z m2168 -38 c-10 -2 -18 -8 -18 -14
0 -6 -7 -5 -17 3 -15 12 -16 12 -10 -4 6 -15 3 -17 -13 -12 -15 5 -18 3 -14
-9 4 -11 0 -13 -17 -9 -13 4 -20 2 -16 -3 3 -6 -14 -22 -38 -38 -43 -27 -66
-28 -64 -3 0 8 2 8 6 -1 4 -10 12 -7 30 10 13 13 26 22 29 21 9 -6 27 -3 21 3
-12 12 94 72 117 66 18 -5 18 -7 4 -10z m-2083 -12 c3 -5 2 -10 -4 -10 -5 0
-13 5 -16 10 -3 6 -2 10 4 10 5 0 13 -4 16 -10z m-65 -47 c0 -7 -5 -13 -11
-13 -5 0 -7 5 -4 10 3 6 -1 13 -9 16 -9 3 -16 10 -16 15 0 5 9 4 20 -3 11 -7
20 -18 20 -25z m57 -30 c0 -17 0 -18 -27 19 l-23 31 25 -19 c14 -10 25 -24 25
-31z m78 37 c3 -6 -1 -7 -9 -4 -18 7 -21 14 -7 14 6 0 13 -4 16 -10z m1695
-24 c0 -3 -4 -8 -10 -11 -5 -3 -10 -1 -10 4 0 6 5 11 10 11 6 0 10 -2 10 -4z
m-1600 -16 c0 -5 -4 -10 -9 -10 -6 0 -13 5 -16 10 -3 6 1 10 9 10 9 0 16 -4
16 -10z m1703 -14 c3 -8 0 -17 -8 -19 -11 -5 -13 6 -6 31 2 6 9 0 14 -12z
m-1798 -6 c3 -5 2 -10 -4 -10 -5 0 -13 5 -16 10 -3 6 -2 10 4 10 5 0 13 -4 16
-10z m172 -6 c-3 -3 -12 -4 -19 -1 -8 3 -5 6 6 6 11 1 17 -2 13 -5z m1593 -9
c0 -8 -14 -22 -31 -31 -26 -13 -33 -14 -40 -2 -7 10 -9 9 -9 -4 0 -16 -6 -20
-26 -17 -4 0 -10 -4 -14 -10 -3 -7 -20 -13 -37 -14 -17 -1 -29 -5 -26 -9 2 -5
0 -8 -6 -8 -5 0 -12 4 -16 9 -7 12 21 28 58 35 14 2 36 10 49 18 24 14 30 15
66 17 13 0 20 5 17 11 -4 6 -11 7 -17 4 -7 -4 -8 -2 -4 4 10 17 36 15 36 -3z
m-1675 -29 l30 -17 -26 4 c-15 1 -33 8 -41 15 -8 6 -17 9 -20 6 -3 -2 -8 2
-11 10 -7 17 13 12 68 -18z m169 5 c4 -5 -3 -7 -14 -4 -23 6 -26 13 -6 13 8 0
17 -4 20 -9z m1216 -11 c0 -5 -5 -10 -11 -10 -5 0 -7 5 -4 10 3 6 8 10 11 10
2 0 4 -4 4 -10z m-1328 -25 c0 -5 -5 -11 -10 -13 -5 -1 -9 4 -9 13 0 9 4 14 9
13 5 -2 10 -8 10 -13z m185 9 c-3 -3 -12 -4 -19 -1 -8 3 -5 6 6 6 11 1 17 -2
13 -5z m-147 -23 c0 -6 -4 -13 -10 -16 -5 -3 -10 1 -10 9 0 9 5 16 10 16 6 0
10 -4 10 -9z m78 -31 c18 -16 29 -30 23 -30 -5 0 -17 7 -25 15 -9 9 -28 22
-43 30 -23 13 -25 15 -8 15 11 0 35 -13 53 -30z m1288 19 c7 -11 -13 -29 -31
-28 -5 0 -5 3 2 5 7 3 9 12 6 20 -6 16 13 19 23 3z m-1226 -29 c8 -5 11 -10 5
-10 -5 0 -17 5 -25 10 -8 5 -10 10 -5 10 6 0 17 -5 25 -10z m54 -25 c3 -9 0
-15 -9 -15 -9 0 -12 6 -9 15 4 8 7 15 9 15 2 0 5 -7 9 -15z m1081 5 c-11 -5
-27 -9 -35 -9 -9 0 -8 4 5 9 11 5 27 9 35 9 9 0 8 -4 -5 -9z m-937 -55 c14
-14 -9 -13 -39 0 l-34 16 34 -6 c19 -3 37 -7 39 -10z m738 8 c-10 -11 -37 -12
-30 -2 3 5 12 9 21 9 9 0 13 -3 9 -7z m-341 -123 c-3 -5 -10 -10 -16 -10 -5 0
-9 5 -9 10 0 6 7 10 16 10 8 0 12 -4 9 -10z m138 -5 c-3 -9 -8 -14 -10 -11 -3
3 -2 9 2 15 9 16 15 13 8 -4z m-33 -55 c0 -5 -5 -10 -11 -10 -5 0 -7 5 -4 10
3 6 8 10 11 10 2 0 4 -4 4 -10z m-30 -70 c0 -5 -4 -10 -10 -10 -5 0 -10 5 -10
10 0 6 5 10 10 10 6 0 10 -4 10 -10z m-1140 -36 c0 -8 -5 -12 -10 -9 -6 4 -8
11 -5 16 9 14 15 11 15 -7z m1210 12 c0 -2 -7 -7 -16 -10 -8 -3 -12 -2 -9 4 6
10 25 14 25 6z m-106 -47 c-3 -5 -10 -7 -15 -3 -5 3 -7 10 -3 15 3 5 10 7 15
3 5 -3 7 -10 3 -15z m-99 1 c3 -5 1 -10 -4 -10 -6 0 -11 5 -11 10 0 6 2 10 4
10 3 0 8 -4 11 -10z m56 -73 c-10 -9 -11 -8 -5 6 3 10 9 15 12 12 3 -3 0 -11
-7 -18z m-171 -162 c-7 -8 -18 -15 -24 -15 -6 0 -2 7 8 15 25 19 32 19 16 0z"/>
<path d="M2340 2852 c0 -10 22 -32 32 -32 5 0 3 9 -4 20 -13 20 -28 27 -28 12z"/>
<path d="M2260 2815 c-10 -12 -9 -15 4 -15 10 0 15 4 12 9 -4 5 0 12 6 14 8 4
9 6 2 6 -6 1 -17 -6 -24 -14z"/>
<path d="M2394 2795 c8 -8 18 -15 22 -15 3 0 1 7 -6 15 -7 8 -17 15 -22 15 -5
0 -3 -7 6 -15z"/>
<path d="M1936 2765 c-11 -16 -12 -23 -3 -20 16 7 40 45 28 45 -5 0 -16 -11
-25 -25z"/>
<path d="M2325 2780 c3 -5 8 -10 11 -10 2 0 4 5 4 10 0 6 -5 10 -11 10 -5 0
-7 -4 -4 -10z"/>
<path d="M2365 2770 c-3 -5 -1 -10 4 -10 6 0 11 5 11 10 0 6 -2 10 -4 10 -3 0
-8 -4 -11 -10z"/>
<path d="M2428 2758 c20 -20 14 -24 -28 -20 -26 3 -40 0 -40 -8 0 -7 16 -11
43 -10 59 3 64 1 47 -11 -13 -9 -13 -10 1 -6 9 3 22 0 30 -6 7 -7 -2 7 -20 31
-18 23 -35 42 -39 42 -3 0 -1 -5 6 -12z"/>
<path d="M2204 2743 c-7 -2 -10 -14 -7 -26 5 -22 5 -22 -11 -2 -10 11 -14 14
-10 6 5 -10 3 -13 -9 -8 -13 5 -15 2 -8 -16 25 -64 46 -87 79 -87 37 0 39 6
12 40 -11 14 -20 34 -20 45 -2 31 -14 52 -26 48z"/>
<path d="M2295 2730 c-3 -5 -4 -10 -1 -10 2 0 12 -3 20 -6 12 -5 15 -2 10 10
-7 18 -20 21 -29 6z"/>
<path d="M1862 2667 c-8 -10 -5 -13 14 -15 32 -2 46 -11 39 -23 -9 -13 49 -11
63 3 22 22 12 28 -49 28 -37 0 -58 4 -54 10 9 14 -1 12 -13 -3z"/>
<path d="M2410 2656 c16 -17 23 -18 45 -8 22 10 29 9 48 -9 19 -18 19 -19 3
-13 -14 5 -17 4 -12 -4 4 -7 18 -12 32 -12 l25 0 -24 31 c-22 28 -30 31 -80
33 -56 1 -56 1 -37 -18z"/>
<path d="M2305 2643 c17 -17 32 -29 34 -27 6 6 -20 34 -43 46 -14 8 -11 1 9
-19z"/>
<path d="M2350 2666 c0 -2 8 -10 18 -17 15 -13 16 -12 3 4 -13 16 -21 21 -21
13z"/>
<path d="M2638 2662 c-44 -5 -33 -18 12 -14 22 2 40 5 40 7 0 7 -27 10 -52 7z"/>
<path d="M2586 2637 c3 -10 9 -15 12 -12 3 3 0 11 -7 18 -10 9 -11 8 -5 -6z"/>
<path d="M2020 2626 c0 -12 7 -13 31 -6 46 13 48 20 6 20 -25 0 -37 -4 -37
-14z"/>
<path d="M1756 2580 c6 -6 27 -12 47 -13 21 -1 37 -5 37 -8 0 -3 35 -9 78 -13
42 -3 110 -9 150 -12 66 -6 72 -5 73 12 0 11 3 14 6 6 4 -9 25 -11 81 -8 54 3
65 2 37 -3 -25 -5 40 -8 170 -8 131 0 184 3 140 7 -70 6 -69 6 35 9 58 2 127
2 154 1 32 -1 46 2 41 9 -3 6 0 12 7 12 7 1 -9 5 -37 9 -80 13 -1031 12 -1019
0z m357 -37 c-13 -2 -33 -2 -45 0 -13 2 -3 4 22 4 25 0 35 -2 23 -4z"/>
<path d="M3125 2559 c-11 -17 1 -21 15 -4 8 9 8 15 2 15 -6 0 -14 -5 -17 -11z"/>
<path d="M2658 2533 c6 -2 18 -2 25 0 6 3 1 5 -13 5 -14 0 -19 -2 -12 -5z"/>
<path d="M2436 2437 c-5 -32 -6 -78 -3 -103 l5 -44 -58 0 c-77 0 -93 -6 -79
-31 9 -18 25 -19 299 -19 l290 0 0 23 c0 21 -3 22 -102 22 l-103 0 -3 75 c-4
126 1 120 -97 120 l-84 0 -6 -33 c-4 -18 -5 -53 -3 -77 l3 -45 58 -3 59 -3 -4
48 c-3 45 -2 48 22 48 22 0 25 -5 28 -39 7 -84 4 -86 -107 -86 l-99 0 4 43 c2
23 1 69 -4 102 l-9 60 -7 -58z m124 -47 c0 -40 -3 -48 -15 -44 -15 6 -19 42
-9 81 10 37 24 15 24 -37z"/>
<path d="M1940 2445 c0 -35 0 -35 45 -35 l46 0 -3 35 c-2 34 -3 35 -45 35 -42
0 -43 0 -43 -35z"/>
<path d="M2060 2448 l0 -33 85 0 86 0 -3 30 -3 30 -82 3 -83 3 0 -33z"/>
<path d="M2279 2475 c-3 -2 -3 -19 -1 -37 l4 -33 53 3 c56 4 66 14 57 55 -3
13 -15 17 -56 17 -29 0 -55 -2 -57 -5z"/>
<path d="M2720 2403 l0 -83 51 0 51 0 -7 50 c-7 48 -6 50 17 50 13 0 30 -6 38
-12 12 -11 12 -10 1 4 -7 10 -21 20 -32 23 -10 4 -19 12 -19 20 0 7 -14 15
-30 17 l-31 5 7 -59 c6 -50 4 -58 -10 -58 -12 0 -16 10 -16 48 0 26 -5 54 -10
62 -7 10 -10 -11 -10 -67z"/>
<path d="M1635 2460 c4 -6 -15 -10 -49 -10 -51 0 -70 -10 -47 -24 5 -4 82 -9
171 -12 118 -4 165 -2 176 6 10 9 14 9 14 1 0 -6 5 -11 10 -11 6 0 10 14 10
30 l0 30 -146 0 c-94 0 -143 -4 -139 -10z m88 -7 c-13 -2 -33 -2 -45 0 -13 2
-3 4 22 4 25 0 35 -2 23 -4z m177 -3 c0 -5 -4 -10 -10 -10 -5 0 -10 5 -10 10
0 6 5 10 10 10 6 0 10 -4 10 -10z"/>
<path d="M2901 2327 c1 -60 -1 -110 -2 -112 -2 -1 -137 -4 -299 -6 l-295 -4
-37 75 c-21 41 -38 81 -38 88 0 9 -24 12 -85 12 l-85 0 0 -30 c0 -16 -9 -44
-20 -62 -13 -21 -20 -27 -20 -16 0 16 -21 17 -284 15 -262 -2 -285 -3 -290
-20 -3 -11 3 -19 17 -22 12 -2 142 -4 290 -2 219 2 266 0 262 -11 -3 -8 -5
-18 -5 -23 0 -6 -112 -9 -290 -7 l-290 3 0 -66 c0 -83 20 -153 75 -256 24 -46
42 -83 40 -83 -1 0 -18 24 -36 53 -18 28 -36 54 -40 57 -14 11 -39 71 -34 80
3 6 2 10 -3 10 -6 0 -13 17 -18 38 -4 22 -9 30 -11 19 -10 -39 68 -223 89
-211 7 4 8 3 4 -5 -12 -18 18 -57 111 -149 101 -100 162 -140 268 -174 122
-40 165 -48 299 -55 109 -5 133 -3 207 17 46 12 117 37 158 56 41 19 78 34 83
34 15 0 98 62 93 70 -2 4 8 18 23 31 20 19 23 19 12 4 -8 -11 8 0 34 25 41 38
46 41 30 15 l-18 -30 23 20 c34 29 110 133 127 173 17 41 17 45 3 36 -7 -4 -9
0 -6 12 3 11 8 48 12 84 l5 65 -14 -38 c-8 -21 -18 -42 -22 -45 -4 -4 -4 2 0
12 3 10 11 49 16 85 12 81 12 268 0 231 -7 -21 -8 -19 -9 16 -1 23 -8 55 -16
70 -14 27 -15 22 -14 -79z m-707 -42 c18 -57 85 -221 165 -404 45 -102 81
-186 81 -189 0 -6 -134 0 -145 7 -5 3 11 10 37 16 l47 10 -58 120 c-32 66 -77
164 -101 218 -24 53 -46 97 -50 97 -3 0 -30 -62 -60 -137 -29 -76 -66 -164
-82 -196 -56 -112 -56 -107 11 -107 l59 0 22 54 c21 52 60 102 60 78 0 -7 -5
-12 -11 -12 -10 0 -59 -100 -59 -121 0 -7 12 -9 30 -7 22 3 28 2 20 -6 -6 -6
-65 -13 -137 -15 -103 -2 -125 -1 -120 10 32 74 236 586 240 601 8 29 40 18
51 -17z m-219 -164 c-6 -19 -14 -21 -96 -21 l-89 0 0 -102 c0 -116 8 -126 15
-18 3 40 7 75 9 78 6 6 136 8 135 2 0 -3 -19 -50 -42 -105 l-42 -100 -108 -3
c-72 -2 -107 1 -107 8 0 6 5 8 11 4 20 -12 2 43 -47 144 -24 50 -48 92 -53 92
-5 0 13 -45 40 -101 68 -140 61 -147 -12 -12 -57 106 -61 112 -87 107 -29 -6
-73 19 -59 33 7 6 523 22 535 16 2 -1 1 -11 -3 -22z m903 14 c6 -2 12 -11 12
-20 0 -11 -12 -15 -51 -15 l-50 0 -20 -47 c-45 -107 -64 -144 -67 -135 -2 6 4
22 13 35 16 25 37 87 29 87 -2 0 -18 -22 -35 -50 -46 -76 -46 -60 0 25 l42 75
-30 0 c-44 0 -57 -43 -60 -202 -1 -16 -5 -28 -11 -28 -6 0 -10 47 -10 120 l0
120 -50 0 -50 0 0 -107 c0 -58 -3 -103 -7 -99 -4 4 -6 53 -6 109 2 84 0 95 -8
63 -13 -54 -22 -59 -17 -11 l3 40 -74 1 c-67 1 -75 4 -87 25 l-12 24 266 -3
c147 -1 273 -5 280 -7z m-393 -113 c12 -74 12 -82 5 -82 -14 0 -28 25 -32 55
-2 22 -9 31 -25 33 -27 4 -27 3 -9 -40 8 -18 21 -54 30 -79 11 -30 22 -46 34
-45 9 0 31 -2 47 -4 25 -2 23 -4 -15 -9 l-45 -6 -52 109 c-29 60 -53 109 -53
110 0 1 25 -1 55 -2 54 -4 54 -4 60 -40z m15 -122 c-20 -13 -33 -13 -25 0 3 6
14 10 23 10 15 0 15 -2 2 -10z m-316 -8 c3 -5 -1 -9 -9 -9 -8 0 -12 4 -9 9 3
4 7 8 9 8 2 0 6 -4 9 -8z m24 -47 c-3 -3 -9 2 -12 12 -6 14 -5 15 5 6 7 -7 10
-15 7 -18z m32 -55 c11 -21 20 -47 20 -58 0 -10 5 -23 12 -30 9 -9 9 -12 0
-12 -6 0 -14 12 -17 28 -5 23 -13 42 -43 105 -2 4 -1 7 2 7 3 0 15 -18 26 -40z
m-669 -17 c13 -16 12 -17 -3 -4 -10 7 -18 15 -18 17 0 8 8 3 21 -13z m659 -14
c15 -28 5 -23 -15 7 -9 15 -12 23 -6 20 6 -4 16 -16 21 -27z m-569 -86 c13
-16 12 -17 -3 -4 -17 13 -22 21 -14 21 2 0 10 -8 17 -17z m637 -30 c-76 -2
-200 -2 -275 0 -76 1 -14 3 137 3 151 0 213 -2 138 -3z m-547 -30 c13 -17 13
-17 -6 -3 -11 8 -22 16 -24 17 -2 2 0 3 6 3 6 0 17 -8 24 -17z m769 13 c0 -2
-7 -6 -15 -10 -8 -3 -15 -1 -15 4 0 6 7 10 15 10 8 0 15 -2 15 -4z m-619 -44
c-7 -2 -18 1 -23 6 -8 8 -4 9 13 5 13 -4 18 -8 10 -11z m222 1 c-7 -2 -21 -2
-30 0 -10 3 -4 5 12 5 17 0 24 -2 18 -5z m64 -4 c11 -11 6 -59 -7 -59 -4 0 -5
12 -2 26 3 16 -1 30 -9 35 -8 5 -9 9 -3 9 5 0 15 -5 21 -11z m61 4 c-10 -2
-26 -2 -35 0 -10 3 -2 5 17 5 19 0 27 -2 18 -5z m-91 -28 c4 -4 3 -5 -4 -1 -7
4 -13 -2 -15 -16 -3 -22 -4 -22 -9 3 -6 27 10 34 28 14z m293 5 c0 -5 -8 -10
-17 -10 -15 0 -16 2 -3 10 19 12 20 12 20 0z m-200 -25 c0 -9 -9 -15 -22 -15
-21 0 -21 0 -2 15 24 18 24 18 24 0z m-153 -1 c-3 -3 -12 -4 -19 -1 -8 3 -5 6
6 6 11 1 17 -2 13 -5z m271 -1 c-10 -2 -26 -2 -35 0 -10 3 -2 5 17 5 19 0 27
-2 18 -5z"/>
<path d="M2106 2145 c-11 -27 -55 -129 -98 -226 -43 -97 -78 -184 -78 -193 0
-24 16 -20 39 10 22 28 133 304 151 376 18 70 8 92 -14 33z"/>
<path d="M2240 2064 c0 -5 4 -14 8 -19 5 -6 21 -41 37 -80 45 -110 114 -251
115 -236 0 8 -30 80 -67 160 -65 143 -93 196 -93 175z"/>
<path d="M1610 2096 c0 -2 16 -37 35 -77 l35 -73 0 77 0 77 -35 0 c-19 0 -35
-2 -35 -4z"/>
<path d="M1690 1992 l0 -108 28 2 c67 4 62 -5 62 109 l0 105 -45 0 -45 0 0
-108z"/>
<path d="M1826 1980 c-4 -33 -4 -64 -1 -70 3 -5 -14 -15 -37 -21 -63 -18 -64
-24 -3 -27 43 -2 59 2 75 18 22 22 27 45 8 34 -7 -4 -5 2 4 13 10 10 24 41 32
66 l14 47 -43 0 -42 0 -7 -60z"/>
<path d="M3137 2388 c6 -7 9 -21 8 -30 -2 -10 1 -20 6 -24 5 -3 9 11 9 30 0
27 -4 36 -16 36 -12 0 -14 -4 -7 -12z"/>
<path d="M2273 2363 c-12 -31 6 -43 62 -43 51 0 55 2 55 24 0 22 -4 24 -56 28
-39 2 -58 -1 -61 -9z"/>
<path d="M1540 2345 l0 -25 165 0 165 0 0 25 0 25 -165 0 -165 0 0 -25z"/>
<path d="M1902 2340 c0 -19 2 -27 5 -17 2 9 2 25 0 35 -3 9 -5 1 -5 -18z"/>
<path d="M1940 2342 c0 -26 2 -27 45 -24 40 4 45 7 45 28 0 22 -4 24 -45 24
-42 0 -45 -2 -45 -28z"/>
<path d="M2866 2335 c-3 -8 -1 -15 4 -15 6 0 10 7 10 15 0 8 -2 15 -4 15 -2 0
-6 -7 -10 -15z"/>
<path d="M3100 2241 c0 -6 4 -13 10 -16 6 -3 7 1 4 9 -7 18 -14 21 -14 7z"/>
<path d="M2962 2110 c0 -14 2 -19 5 -12 2 6 2 18 0 25 -3 6 -5 1 -5 -13z"/>
<path d="M1391 2094 c0 -11 3 -14 6 -6 3 7 2 16 -1 19 -3 4 -6 -2 -5 -13z"/>
<path d="M3050 2080 c-12 -8 -10 -10 8 -10 13 0 20 4 17 10 -7 12 -6 12 -25 0z"/>
<path d="M1728 4203 c7 -3 16 -2 19 1 4 3 -2 6 -13 5 -11 0 -14 -3 -6 -6z"/>
<path d="M2648 4203 c7 -3 16 -2 19 1 4 3 -2 6 -13 5 -11 0 -14 -3 -6 -6z"/>
<path d="M1580 4170 c-20 -6 -21 -8 -5 -8 11 0 29 3 40 8 25 11 -1 11 -35 0z"/>
<path d="M2798 4163 c7 -3 16 -2 19 1 4 3 -2 6 -13 5 -11 0 -14 -3 -6 -6z"/>
<path d="M1470 4135 c-19 -7 -28 -13 -20 -13 8 0 31 6 50 13 19 7 28 13 20 13
-8 0 -31 -6 -50 -13z"/>
<path d="M2920 4120 c8 -5 20 -10 25 -10 6 0 3 5 -5 10 -8 5 -19 10 -25 10 -5
0 -3 -5 5 -10z"/>
<path d="M1363 4097 c-51 -19 -51 -28 0 -11 26 9 47 18 47 20 0 6 -12 4 -47
-9z"/>
<path d="M3020 4080 c8 -5 20 -10 25 -10 6 0 3 5 -5 10 -8 5 -19 10 -25 10 -5
0 -3 -5 5 -10z"/>
<path d="M1263 4054 c-18 -8 -33 -16 -33 -19 0 -5 70 22 79 30 8 9 -14 4 -46
-11z"/>
<path d="M3090 4055 c0 -7 81 -47 86 -43 2 3 -17 14 -41 26 -25 12 -45 20 -45
17z"/>
<path d="M1178 4014 c-39 -21 -35 -28 5 -8 37 19 44 24 31 24 -5 -1 -21 -8
-36 -16z"/>
<path d="M1098 3969 c-21 -11 -38 -22 -38 -24 0 -3 18 4 40 15 22 11 40 23 40
25 0 7 0 7 -42 -16z"/>
<path d="M3220 3986 c0 -2 7 -7 16 -10 8 -3 12 -2 9 4 -6 10 -25 14 -25 6z"/>
<path d="M3260 3965 c0 -2 15 -12 33 -20 l32 -16 -25 20 c-24 20 -40 26 -40
16z"/>
<path d="M1024 3924 c-18 -14 -18 -15 4 -4 12 6 22 13 22 15 0 8 -5 6 -26 -11z"/>
<path d="M952 3879 c-56 -41 -54 -48 3 -9 39 27 53 40 42 40 -2 0 -22 -14 -45
-31z"/>
<path d="M3410 3877 c0 -3 18 -20 40 -37 22 -17 40 -29 40 -27 0 3 -18 20 -40
37 -22 17 -40 29 -40 27z"/>
<path d="M865 3814 l-30 -26 33 22 c17 12 32 23 32 26 0 7 -4 5 -35 -22z"/>
<path d="M3535 3778 c151 -125 248 -225 347 -355 39 -51 73 -93 75 -93 3 0 1
6 -4 13 -6 6 -38 50 -73 97 -68 92 -267 291 -340 341 l-45 31 40 -34z"/>
<path d="M804 3768 l-19 -23 23 19 c21 18 27 26 19 26 -2 0 -12 -10 -23 -22z"/>
<path d="M604 3571 c-45 -50 -157 -195 -132 -171 26 25 180 212 176 214 -2 1
-21 -18 -44 -43z"/>
<path d="M420 3335 c-17 -25 -29 -45 -26 -45 3 0 19 20 36 45 17 25 29 45 26
45 -3 0 -19 -20 -36 -45z"/>
<path d="M294 3129 c-14 -28 -24 -53 -22 -55 2 -2 16 21 31 51 15 30 25 55 22
55 -3 0 -16 -23 -31 -51z"/>
<path d="M206 2945 c-9 -26 -7 -32 5 -12 6 10 9 21 6 23 -2 3 -7 -2 -11 -11z"/>
<path d="M91 2504 c0 -11 3 -14 6 -6 3 7 2 16 -1 19 -3 4 -6 -2 -5 -13z"/>
<path d="M72 2375 c0 -16 2 -22 5 -12 2 9 2 23 0 30 -3 6 -5 -1 -5 -18z"/>
<path d="M4291 1684 c0 -11 3 -14 6 -6 3 7 2 16 -1 19 -3 4 -6 -2 -5 -13z"/>
<path d="M4281 1644 c0 -11 3 -14 6 -6 3 7 2 16 -1 19 -3 4 -6 -2 -5 -13z"/>
<path d="M4251 1534 c0 -11 3 -14 6 -6 3 7 2 16 -1 19 -3 4 -6 -2 -5 -13z"/>
<path d="M4196 1395 c-9 -26 -7 -32 5 -12 6 10 9 21 6 23 -2 3 -7 -2 -11 -11z"/>
<path d="M4062 1107 c-18 -34 -25 -53 -16 -42 19 24 57 96 52 100 -2 2 -18
-24 -36 -58z"/>
<path d="M3992 993 c-80 -131 -303 -375 -439 -483 -74 -58 -66 -61 10 -4 90
69 274 259 354 366 71 95 119 168 110 168 -3 0 -18 -21 -35 -47z"/>
<path d="M725 575 c17 -14 48 -40 70 -56 l40 -31 -40 36 c-22 20 -53 46 -70
57 l-30 21 30 -27z"/>
<path d="M3469 443 c-13 -16 -12 -17 4 -4 16 13 21 21 13 21 -2 0 -10 -8 -17
-17z"/>
<path d="M3412 406 c-46 -33 -53 -43 -14 -20 19 10 38 25 44 32 15 17 8 14
-30 -12z"/>
<path d="M944 412 c8 -13 66 -56 66 -49 0 3 -17 17 -37 33 -20 15 -33 23 -29
16z"/>
<path d="M1060 336 c0 -3 9 -10 20 -16 11 -6 20 -8 20 -6 0 3 -9 10 -20 16
-11 6 -20 8 -20 6z"/>
<path d="M1130 296 c0 -3 9 -10 20 -16 11 -6 20 -8 20 -6 0 3 -9 10 -20 16
-11 6 -20 8 -20 6z"/>
<path d="M3170 265 c-36 -19 -61 -34 -57 -35 10 0 127 59 127 65 0 7 2 8 -70
-30z"/>
<path d="M1220 246 c0 -2 7 -7 16 -10 8 -3 12 -2 9 4 -6 10 -25 14 -25 6z"/>
<path d="M1260 226 c0 -2 7 -7 16 -10 8 -3 12 -2 9 4 -6 10 -25 14 -25 6z"/>
<path d="M3030 200 c-8 -5 -10 -10 -5 -10 6 0 17 5 25 10 8 5 11 10 5 10 -5 0
-17 -5 -25 -10z"/>
<path d="M2955 169 c-22 -10 -29 -16 -15 -13 28 7 80 33 65 33 -5 0 -28 -9
-50 -20z"/>
<path d="M1410 160 c8 -5 20 -10 25 -10 6 0 3 5 -5 10 -8 5 -19 10 -25 10 -5
0 -3 -5 5 -10z"/>
<path d="M2870 140 c-14 -4 -63 -19 -110 -33 -47 -14 -78 -26 -69 -26 18 -1
209 56 218 64 6 7 -9 5 -39 -5z"/>
<path d="M2648 73 c7 -3 16 -2 19 1 4 3 -2 6 -13 5 -11 0 -14 -3 -6 -6z"/>
</g>
</svg>
